<svg width="32" height="16" viewBox="0 0 32 16" fill="none" xmlns="http://www.w3.org/2000/svg">
<g clip-path="url(#clip0_230_695)">
<path d="M12 2.17437C12.4244 2.17437 12.8313 2.32229 13.1314 2.58559C13.4314 2.84888 13.6 3.20599 13.6 3.57836C13.6 3.95074 13.4314 4.30784 13.1314 4.57114C12.8313 4.83443 12.4243 4.98235 12 4.98235C11.5756 4.98235 11.1687 4.83443 10.8686 4.57114C10.5686 4.30784 10.4 3.95074 10.4 3.57836C10.4 3.20599 10.5686 2.84888 10.8686 2.58559C11.1687 2.32229 11.5756 2.17437 12 2.17437ZM20 0.0683899C21.0609 0.0683899 22.0783 0.438168 22.8284 1.09645C23.5786 1.75468 24 2.64744 24 3.57836C24 4.50928 23.5786 5.40204 22.8284 6.06028C22.0783 6.71856 21.0609 7.08833 20 7.08833H12C10.9391 7.08833 9.92173 6.71856 9.17156 6.06028C8.42142 5.40204 8 4.50928 8 3.57836C8 2.64744 8.42142 1.75468 9.17156 1.09645C9.92173 0.438213 10.9391 0.0683899 12 0.0683899H20ZM12 1.47238C11.3635 1.47238 10.753 1.69424 10.3029 2.08922C9.8529 2.48416 9.6 3.01982 9.6 3.57836C9.6 4.1369 9.85285 4.67256 10.3029 5.0675C10.753 5.46249 11.3635 5.68434 12 5.68434H20C20.6365 5.68434 21.247 5.46249 21.697 5.0675C22.1471 4.67256 22.4 4.1369 22.4 3.57836C22.4 3.01982 22.1471 2.48416 21.697 2.08922C21.247 1.69424 20.6365 1.47238 20 1.47238H12ZM20 8.91169H12C10.9391 8.91169 9.92173 9.28147 9.17156 9.93975C8.42142 10.598 8 11.4907 8 12.4217C8 13.3526 8.42142 14.2453 9.17156 14.9036C9.92173 15.5619 10.9391 15.9316 12 15.9316H20C21.0609 15.9316 22.0783 15.5619 22.8284 14.9036C23.5786 14.2453 24 13.3526 24 12.4217C24 11.4907 23.5786 10.598 22.8284 9.93975C22.0783 9.28147 21.0609 8.91169 20 8.91169ZM20 14.5276C19.3635 14.5276 18.753 14.3058 18.303 13.9108C17.8529 13.5159 17.6 12.9802 17.6 12.4217C17.6 11.8631 17.8529 11.3275 18.303 10.9325C18.753 10.5375 19.3635 10.3157 20 10.3157C20.6365 10.3157 21.247 10.5375 21.697 10.9325C22.1471 11.3275 22.4 11.8631 22.4 12.4217C22.4 12.9802 22.1471 13.5159 21.697 13.9108C21.247 14.3058 20.6365 14.5276 20 14.5276Z" fill="white" stroke="white" stroke-width="0.045584"/>
</g>
<defs>
<clipPath id="clip0_230_695">
<rect width="16" height="16" fill="white" transform="translate(8)"/>
</clipPath>
</defs>
</svg>
