<svg width="118" height="145" viewBox="0 0 118 145" fill="none" xmlns="http://www.w3.org/2000/svg">
<path fill-rule="evenodd" clip-rule="evenodd" d="M115.343 112.999C113.228 118.065 110.724 122.728 107.824 127.015C103.869 132.86 100.632 136.905 98.1368 139.152C94.269 142.839 90.1249 144.728 85.6873 144.835C82.5016 144.835 78.6597 143.896 74.1875 141.989C69.7007 140.092 65.5773 139.152 61.8071 139.152C57.853 139.152 53.6122 140.092 49.0762 141.989C44.5332 143.896 40.8735 144.889 38.0754 144.988C33.8199 145.176 29.5783 143.233 25.3444 139.152C22.6422 136.708 19.2622 132.52 15.2131 126.586C10.8687 120.249 7.29702 112.901 4.49891 104.523C1.50223 95.4743 0 86.7119 0 78.2287C0 68.5113 2.02542 60.1302 6.08229 53.1069C9.27063 47.4655 13.5123 43.0154 18.821 39.7485C24.1297 36.4816 29.8658 34.8169 36.0431 34.7104C39.4231 34.7104 43.8555 35.7942 49.3637 37.9244C54.8563 40.0618 58.3831 41.1456 59.9293 41.1456C61.0853 41.1456 65.0032 39.8783 71.645 37.3516C77.9258 35.0084 83.2268 34.0382 87.5694 34.4204C99.3368 35.4049 108.178 40.2139 114.057 48.8779C103.533 55.4886 98.3267 64.7477 98.4303 76.6257C98.5253 85.8777 101.763 93.5768 108.126 99.6899C111.009 102.527 114.23 104.72 117.812 106.277C117.035 108.613 116.215 110.851 115.343 112.999ZM88.354 2.90081C88.354 10.1525 85.7985 16.9233 80.7048 23.1903C74.5577 30.6406 67.1226 34.9457 59.0598 34.2664C58.957 33.3964 58.8975 32.4808 58.8975 31.5186C58.8975 24.5571 61.8208 17.1068 67.0121 11.0152C69.6038 7.9309 72.9001 5.36636 76.8974 3.32058C80.8861 1.30532 84.6589 0.190821 88.2073 0C88.3109 0.969412 88.354 1.93891 88.354 2.90072V2.90081Z" fill="white"/>
</svg>
