<svg width="48" height="48" viewBox="0 0 48 48" fill="none" xmlns="http://www.w3.org/2000/svg">
<rect width="48" height="48" rx="11.52" fill="white"/>
<path d="M9.39323 28V21.352H11.4452V26.5H13.6652L13.2812 28H9.39323ZM14.2627 28C14.1507 27.824 14.0507 27.552 13.9627 27.184C13.8827 26.816 13.8427 26.448 13.8427 26.08V23.2H18.1387C18.4027 23.416 18.5827 23.676 18.6787 23.98C18.7827 24.284 18.8347 24.6 18.8347 24.928C18.8347 25.224 18.7747 25.532 18.6547 25.852C18.5347 26.172 18.3627 26.412 18.1387 26.572H15.9907C16.0547 26.86 16.1427 27.12 16.2547 27.352C16.3747 27.584 16.5107 27.792 16.6627 27.976L16.6507 28H14.2627ZM15.9307 26.2C16.1947 26.08 16.4027 25.912 16.5547 25.696C16.7067 25.472 16.7827 25.2 16.7827 24.88C16.7827 24.632 16.7067 24.384 16.5547 24.136C16.4107 23.88 16.1907 23.7 15.8947 23.596V25.66C15.8947 25.852 15.9067 26.032 15.9307 26.2ZM19.9899 28C19.7739 27.792 19.5979 27.552 19.4619 27.28C19.3339 27.008 19.2379 26.736 19.1739 26.464C19.1099 26.192 19.0779 25.96 19.0779 25.768C19.0779 25.176 19.1619 24.656 19.3299 24.208C19.4979 23.76 19.7179 23.424 19.9899 23.2H22.1739V21.112H24.2259V28H19.9899ZM22.1739 27.592V23.596C21.9179 23.772 21.6819 24.028 21.4659 24.364C21.2579 24.7 21.1539 25.092 21.1539 25.54C21.1539 25.972 21.2339 26.356 21.3939 26.692C21.5619 27.028 21.8219 27.328 22.1739 27.592ZM27.2304 30.088L27.2184 30.064C27.4184 29.8 27.5864 29.504 27.7224 29.176C27.8664 28.856 27.9504 28.464 27.9744 28H25.8024C25.5864 27.792 25.4104 27.552 25.2744 27.28C25.1464 27.008 25.0504 26.736 24.9864 26.464C24.9224 26.192 24.8904 25.96 24.8904 25.768C24.8904 25.176 24.9744 24.656 25.1424 24.208C25.3104 23.76 25.5304 23.424 25.8024 23.2H30.0384V28.168C30.0384 28.536 29.9944 28.904 29.9064 29.272C29.8264 29.64 29.7304 29.912 29.6184 30.088H27.2304ZM27.9864 27.592V23.596C27.7304 23.772 27.4944 24.028 27.2784 24.364C27.0704 24.7 26.9664 25.092 26.9664 25.54C26.9664 25.972 27.0464 26.356 27.2064 26.692C27.3744 27.028 27.6344 27.328 27.9864 27.592ZM31.2197 28C31.1077 27.824 31.0077 27.552 30.9197 27.184C30.8397 26.816 30.7997 26.448 30.7997 26.08V23.2H35.0957C35.3597 23.416 35.5397 23.676 35.6357 23.98C35.7397 24.284 35.7917 24.6 35.7917 24.928C35.7917 25.224 35.7317 25.532 35.6117 25.852C35.4917 26.172 35.3197 26.412 35.0957 26.572H32.9477C33.0117 26.86 33.0997 27.12 33.2117 27.352C33.3317 27.584 33.4677 27.792 33.6197 27.976L33.6077 28H31.2197ZM32.8877 26.2C33.1517 26.08 33.3597 25.912 33.5117 25.696C33.6637 25.472 33.7397 25.2 33.7397 24.88C33.7397 24.632 33.6637 24.384 33.5117 24.136C33.3677 23.88 33.1477 23.7 32.8517 23.596V25.66C32.8517 25.852 32.8637 26.032 32.8877 26.2ZM36.1786 28V25.12C36.1786 24.68 36.2306 24.316 36.3346 24.028C36.4466 23.732 36.6266 23.456 36.8746 23.2H39.2866L39.2986 23.224C38.9066 23.552 38.6306 23.888 38.4706 24.232C38.3186 24.576 38.2426 25.012 38.2426 25.54V28H36.1786Z" fill="#A0C814"/>
</svg>
